<svg xmlns="http://www.w3.org/2000/svg" width="12" height="12" fill="none" viewBox="0 0 12 12">
  <path fill="#858585" d="M6 7.655c1.421 0 1.688-.53 2.932-1.093a3.66 3.66 0 0 1-3.307 2.063 3.66 3.66 0 0 1-3.308-2.063C3.75 7.313 4.58 7.655 6 7.655ZM5.625 3.75A4.435 4.435 0 0 0 1.5 6.563a4.435 4.435 0 0 0 4.125 2.812A4.435 4.435 0 0 0 9.75 6.562 4.435 4.435 0 0 0 5.625 3.75Zm0 3.938c.518 0 1.402-.188.938-1.125a.938.938 0 0 1-1.875 0c-.563-.188.42 1.125.937 1.125Zm0-2.813a1.69 1.69 0 0 0-1.688 1.688c0 .93.758 1.687 1.688 1.687a1.69 1.69 0 0 0 1.688-1.688 1.69 1.69 0 0 0-1.688-1.687Z"/>
</svg>
