<svg xmlns="http://www.w3.org/2000/svg" width="16" height="16" fill="none" viewBox="0 0 16 16">
  <path fill="#858585" d="M8 10.206c1.895 0 2.25-.706 3.91-1.456A4.88 4.88 0 0 1 7.5 11.5a4.88 4.88 0 0 1-4.41-2.75C5 9.75 6.105 10.206 8 10.206ZM7.5 5A5.913 5.913 0 0 0 2 8.75c.865 2.195 3 3.75 5.5 3.75s4.635-1.555 5.5-3.75A5.913 5.913 0 0 0 7.5 5Zm0 5.25c.69 0 1.87-.25 1.25-1.5a1.25 1.25 0 0 1-2.5 0c-.75-.25.56 1.5 1.25 1.5Zm0-3.75c-1.24 0-2.25 1.01-2.25 2.25S6.26 11 7.5 11s2.25-1.01 2.25-2.25S8.74 6.5 7.5 6.5Z"/>
</svg>
