<svg xmlns="http://www.w3.org/2000/svg" width="24" height="24" fill="none" viewBox="0 0 24 24">
  <path fill="#858585" d="M12 15.31c2.842 0 3.375-1.06 5.865-2.185a7.32 7.32 0 0 1-6.615 4.125 7.32 7.32 0 0 1-6.615-4.125c2.865 1.5 4.523 2.184 7.365 2.184Zm-.75-7.81C7.5 7.5 4.298 9.832 3 13.125c1.298 3.293 4.5 5.625 8.25 5.625s6.953-2.332 8.25-5.625C18.203 9.832 15 7.5 11.25 7.5Zm0 7.875c1.035 0 2.805-.375 1.875-2.25a1.876 1.876 0 0 1-3.75 0c-1.125-.375.84 2.25 1.875 2.25Zm0-5.625a3.38 3.38 0 0 0-3.375 3.375A3.38 3.38 0 0 0 11.25 16.5a3.38 3.38 0 0 0 3.375-3.375A3.38 3.38 0 0 0 11.25 9.75Z"/>
</svg>
